<svg width="1200" height="860" viewBox="0 0 1200 860" fill="none" xmlns="http://www.w3.org/2000/svg">
  <rect width="1200" height="860" rx="42" fill="#0C1020"/>
  <rect x="42" y="42" width="1116" height="776" rx="34" fill="url(#bg)"/>
  <rect x="92" y="108" width="1016" height="624" rx="36" fill="url(#panel)"/>
  <rect x="130" y="142" width="232" height="18" rx="9" fill="#8EA1FF" fill-opacity="0.9"/>
  <rect x="888" y="142" width="182" height="18" rx="9" fill="#E9EDF5" fill-opacity="0.16"/>
  <rect x="132" y="222" width="438" height="32" rx="16" fill="#F5F8FF"/>
  <rect x="132" y="274" width="362" height="20" rx="10" fill="#D3DBF5" fill-opacity="0.6"/>
  <rect x="132" y="322" width="214" height="60" rx="30" fill="url(#cta)"/>
  <rect x="132" y="430" width="330" height="88" rx="24" fill="#111A3A"/>
  <rect x="486" y="430" width="192" height="88" rx="24" fill="#111A3A"/>
  <rect x="702" y="430" width="190" height="88" rx="24" fill="#111A3A"/>
  <g filter="url(#bubbleShadow)">
    <circle cx="960" cy="480" r="144" fill="#FFF2DE"/>
  </g>
  <path d="M972 418C1004 418 1030 444 1030 476C1030 533 966 574 952 590C940 574 878 532 878 476C878 444 904 418 936 418C952 418 966 426 972 442C978 426 990 418 1006 418H972Z" fill="#F5B46D"/>
  <circle cx="1004" cy="514" r="20" fill="#FF8A5C"/>
  <rect x="746" y="228" width="262" height="78" rx="24" fill="#101937"/>
  <rect x="774" y="252" width="96" height="16" rx="8" fill="#E6EAF8" fill-opacity="0.82"/>
  <rect x="774" y="278" width="180" height="12" rx="6" fill="#E6EAF8" fill-opacity="0.18"/>
  <defs>
    <linearGradient id="bg" x1="76" y1="72" x2="1116" y2="794" gradientUnits="userSpaceOnUse">
      <stop stop-color="#0F1530"/>
      <stop offset="1" stop-color="#1A1A4C"/>
    </linearGradient>
    <linearGradient id="panel" x1="120" y1="108" x2="1080" y2="732" gradientUnits="userSpaceOnUse">
      <stop stop-color="#111847"/>
      <stop offset="1" stop-color="#1A2257"/>
    </linearGradient>
    <linearGradient id="cta" x1="132" y1="322" x2="346" y2="382" gradientUnits="userSpaceOnUse">
      <stop stop-color="#F7B25A"/>
      <stop offset="1" stop-color="#F2D374"/>
    </linearGradient>
    <filter id="bubbleShadow" x="764" y="284" width="392" height="392" filterUnits="userSpaceOnUse" color-interpolation-filters="sRGB">
      <feFlood flood-opacity="0" result="BackgroundImageFix"/>
      <feColorMatrix in="SourceAlpha" type="matrix" values="0 0 0 0 0 0 0 0 0 0 0 0 0 0 0 0 0 0 127 0" result="hardAlpha"/>
      <feOffset dx="0" dy="0"/>
      <feGaussianBlur stdDeviation="26"/>
      <feComposite in2="hardAlpha" operator="out"/>
      <feColorMatrix type="matrix" values="0 0 0 0 0.958333 0 0 0 0 0.811505 0 0 0 0 0.613281 0 0 0 0.34 0"/>
      <feBlend mode="normal" in2="BackgroundImageFix" result="effect1_dropShadow_1_2"/>
      <feBlend mode="normal" in="SourceGraphic" in2="effect1_dropShadow_1_2" result="shape"/>
    </filter>
  </defs>
</svg>
